<?xml version="1.0" encoding="UTF-8"?><!DOCTYPE svg PUBLIC "-//W3C//DTD SVG 1.1//EN" "http://www.w3.org/Graphics/SVG/1.1/DTD/svg11.dtd"><svg xmlns="http://www.w3.org/2000/svg" xmlns:xlink="http://www.w3.org/1999/xlink" version="1.1" id="Layer_1" x="0px" y="0px" width="72px" height="72px" viewBox="0 0 72 72" xml:space="preserve"><path fill="#FFAA45" d="M25.268 17.274a.999.999 0 0 1-.924-.618l-1.217-2.937a1.001 1.001 0 0 1 1.848-.766l1.217 2.937a1.001 1.001 0 0 1-.924 1.384z"/><path fill="#FFAA45" d="M16.551 32.446a1 1 0 0 1-.383-1.925l2.937-1.216a1.001 1.001 0 0 1 .766 1.848l-2.937 1.216a1 1 0 0 1-.383.077z"/><path fill="#FFAA45" d="M39.224 23.055a1 1 0 0 1-.383-1.925l2.937-1.216a1.001 1.001 0 0 1 .766 1.848l-2.937 1.216a.996.996 0 0 1-.383.077z"/><path fill="#FFAA45" d="M33.443 17.274a1 1 0 0 1-.924-1.384l1.217-2.937a1 1 0 0 1 1.848.766l-1.217 2.937a1 1 0 0 1-.924.618z"/><path fill="#FFAA45" d="M19.487 23.055a.996.996 0 0 1-.383-.077l-2.937-1.216a1 1 0 0 1 .766-1.848l2.937 1.216a1 1 0 0 1-.383 1.925z"/><circle fill="#FFAA45" cx="29.356" cy="26.142" r="8.291"/><path fill="#FFDA69" d="M29.353 19.849a6.276 6.276 0 0 1 5.815 3.885 6.25 6.25 0 0 1 0 4.815 6.25 6.25 0 0 1-3.404 3.404 6.256 6.256 0 0 1-2.404.481 6.276 6.276 0 0 1-5.815-3.885 6.298 6.298 0 0 1 5.808-8.7"/><path fill="#45ABFF" d="M29.949 57.662a1.001 1.001 0 0 1-.937-1.351l.751-2a1.001 1.001 0 0 1 1.873.703l-.751 2a1 1 0 0 1-.936.648z"/><path fill="#45ABFF" d="M32.2 51.662a1 1 0 0 1-.937-1.35l.749-2a1 1 0 0 1 1.873.701l-.749 2a1 1 0 0 1-.936.649z"/><path fill="#45ABFF" d="M43.699 57.662a1.001 1.001 0 0 1-.937-1.351l.751-2a1.001 1.001 0 0 1 1.873.703l-.751 2a1 1 0 0 1-.936.648z"/><path fill="#45ABFF" d="M45.949 51.662a1.001 1.001 0 0 1-.937-1.351l.75-2a1.001 1.001 0 0 1 1.873.703l-.75 2a1 1 0 0 1-.936.648z"/><path fill="#45ABFF" d="M36.324 59.663a1.001 1.001 0 0 1-.937-1.351l.75-2a1.001 1.001 0 0 1 1.873.703l-.75 2a1 1 0 0 1-.936.648z"/><path fill="#45ABFF" d="M38.574 53.662a1.001 1.001 0 0 1-.937-1.351l.75-2a1.001 1.001 0 0 1 1.873.703l-.75 2a1 1 0 0 1-.936.648z"/><path fill="#868686" d="M43.842 24.642c-3.586 0-6.83 1.837-8.681 4.801a7.51 7.51 0 0 0-7.735 3.851 5.936 5.936 0 0 0-5.62 5.921c0 2.936 2.18 5.25 5.554 5.893 2.206.421 5.395.577 11.768.577 6.022 0 9.859-.302 12.019-.555 3.172-.372 5.303-2.591 5.303-5.522a5.493 5.493 0 0 0-2.359-4.52l.002-.194c-.001-5.654-4.599-10.252-10.251-10.252z"/><path fill="#E6E6E6" d="M51.971 36.25a8.32 8.32 0 0 0 .121-1.357 8.248 8.248 0 1 0-15.897-3.088 5.498 5.498 0 0 0-7.479 3.619 3.872 3.872 0 0 0-.981-.138 3.929 3.929 0 0 0-3.929 3.929c0 2.17 1.744 3.512 3.929 3.929s5.518.542 11.393.542 9.655-.292 11.786-.542c2.131-.25 3.536-1.583 3.536-3.536a3.526 3.526 0 0 0-2.479-3.358z"/><path fill="#FFF" d="M27.735 37.319c.341 0 .666.057.981.138a5.497 5.497 0 0 1 7.479-3.619 8.247 8.247 0 0 1 7.647-5.162c4.203 0 7.664 3.144 8.177 7.207a7.72 7.72 0 0 0 .073-.992 8.248 8.248 0 1 0-15.897-3.088 5.498 5.498 0 0 0-7.479 3.619 3.872 3.872 0 0 0-.981-.138 3.929 3.929 0 0 0-3.929 3.929c0 .36.064.689.154 1.004.456-1.666 1.964-2.898 3.775-2.898z"/><metadata><rdf:RDF xmlns:rdf="http://www.w3.org/1999/02/22-rdf-syntax-ns#" xmlns:rdfs="http://www.w3.org/2000/01/rdf-schema#" xmlns:dc="http://purl.org/dc/elements/1.1/"><rdf:Description about="https://iconscout.com/legal#licenses" dc:title="light,rain,sun,weather" dc:description="light,rain,sun,weather" dc:publisher="Iconscout" dc:date="2017-09-19" dc:format="image/svg+xml" dc:language="en"><dc:creator><rdf:Bag><rdf:li>Amedia Utvikling</rdf:li></rdf:Bag></dc:creator></rdf:Description></rdf:RDF></metadata></svg>